  <svg
    color="#183250"
    height="110"
    width="auto"
    viewBox="0 0 528 110"
    xmlns="http://www.w3.org/2000/svg"
  >
    <path
      d="M1.05 4.64999C9.15 4.45 16.05 4.3 21.75 4.2C27.55 4.1 32.2 4.05 35.7 4.05C46.6 4.05 55.15 6.35 61.35 10.95C67.65 15.45 70.8 22.25 70.8 31.35C70.8 35.75 69.55 39.85 67.05 43.65C64.55 47.45 61.35 50.2 57.45 51.9C59.95 52.7 62.3 54 64.5 55.8C66.8 57.5 68.75 59.55 70.35 61.95C71.95 64.25 73.2 66.8 74.1 69.6C75.1 72.3 75.6 75.1 75.6 78C75.6 88.3 72.3 95.95 65.7 100.95C59.2 105.85 49.95 108.3 37.95 108.3C34.25 108.3 29.35 108.25 23.25 108.15C17.15 108.05 9.75 107.9 1.05 107.7L0 106.65V5.7L1.05 4.64999ZM36.15 62.25H23.7V91.5C26.3 91.4 29.2 91.4 32.4 91.5C35.7 91.6 38.75 91.35 41.55 90.75C44.35 90.15 46.7 88.7 48.6 86.4C50.5 84.1 51.45 80.9 51.45 76.8C51.45 72.9 50.2 69.5 47.7 66.6C45.3 63.7 41.45 62.25 36.15 62.25ZM23.7 21V45.15H34.35C39.15 45.15 42.5 44 44.4 41.7C46.4 39.3 47.4 36.4 47.4 33C47.4 29.6 46.4 26.8 44.4 24.6C42.4 22.3 39.05 21.15 34.35 21.15C32.05 21.15 30 21.15 28.2 21.15C26.5 21.15 25 21.1 23.7 21Z"
      fill="currentColor"
    />
    <path
      d="M148.235 77.55H109.085C109.285 82.05 110.435 85.55 112.535 88.05C114.635 90.55 118.085 91.8 122.885 91.8C125.285 91.8 128.035 91.45 131.135 90.75C134.335 90.05 137.985 88.9 142.085 87.3C145.385 90.7 147.435 95.3 148.235 101.1C140.235 106.8 130.435 109.65 118.835 109.65C112.535 109.65 107.235 108.65 102.935 106.65C98.7352 104.65 95.2852 101.85 92.5852 98.25C89.9852 94.65 88.1352 90.4 87.0352 85.5C85.9352 80.6 85.3852 75.25 85.3852 69.45C85.3852 63.85 86.0352 58.7 87.3352 54C88.7352 49.2 90.7852 45.05 93.4852 41.55C96.2852 38.05 99.7852 35.3 103.985 33.3C108.285 31.3 113.285 30.3 118.985 30.3C123.785 30.3 128.085 31.1 131.885 32.7C135.785 34.3 139.085 36.5 141.785 39.3C144.485 42.1 146.535 45.45 147.935 49.35C149.435 53.25 150.185 57.5 150.185 62.1C150.185 68.2 149.535 73.35 148.235 77.55ZM108.935 61.35H128.735V59.7C128.735 56 127.885 52.95 126.185 50.55C124.585 48.15 122.135 46.95 118.835 46.95C115.635 46.95 113.235 48.1 111.635 50.4C110.135 52.6 109.235 56.25 108.935 61.35Z"
      fill="currentColor"
    />
    <path
      d="M208.246 32.4C208.846 35.2 209.146 38 209.146 40.8C209.146 43.6 208.846 46.35 208.246 49.05L190.396 48.75V83.25C190.396 87.95 192.596 90.3 196.996 90.3H205.396C206.696 93.9 207.346 97.2 207.346 100.2C207.346 103.2 207.146 105.35 206.746 106.65C199.346 107.65 192.546 108.15 186.346 108.15C173.746 108.15 167.446 101.2 167.446 87.3V48.9L155.746 49.05C155.046 46.55 154.696 43.85 154.696 40.95C154.696 37.95 155.046 35.1 155.746 32.4L167.446 32.7V24C167.446 18.9 168.396 15.3 170.296 13.2C172.296 11 175.596 9.9 180.196 9.9H189.346L190.396 10.95V32.7L208.246 32.4Z"
      fill="currentColor"
    />
    <path
      d="M231.646 97.5L213.946 6.3C218.746 4.5 222.996 3.6 226.696 3.6C230.896 3.6 233.946 4.55 235.846 6.45C237.746 8.25 239.096 11.7 239.896 16.8L246.196 55.5C248.096 67.1 249.296 75.2 249.796 79.8C250.296 84.4 250.596 86.8 250.696 87C250.896 87.2 251.246 87.3 251.746 87.3L264.196 6.9C267.896 6.2 273.046 5.85 279.646 5.85C286.246 5.85 291.346 6.2 294.946 6.9L306.346 85.35C306.446 86.25 306.596 86.8 306.796 87C307.096 87.2 307.496 87.3 307.996 87.3C308.896 77.9 310.396 67.25 312.496 55.35L320.896 4.95C323.796 4.35 327.146 4.05 330.946 4.05C335.546 4.05 339.596 4.6 343.096 5.7L344.146 7.05L324.346 107.25C317.846 107.95 311.746 108.3 306.046 108.3C300.346 108.3 296.296 107.6 293.896 106.2C291.496 104.8 289.946 101.9 289.246 97.5L284.146 64.95C282.346 53.15 280.896 41.55 279.796 30.15H278.746C277.646 39.85 275.996 51.45 273.796 64.95L267.046 107.25C260.246 107.95 254.046 108.3 248.446 108.3C242.946 108.3 238.996 107.6 236.596 106.2C234.196 104.8 232.546 101.9 231.646 97.5Z"
      fill="currentColor"
    />
    <path
      d="M383.194 49.8V107.4C381.494 107.7 379.644 107.9 377.644 108C375.644 108.2 373.594 108.3 371.494 108.3C369.394 108.3 367.294 108.2 365.194 108C363.194 107.9 361.344 107.7 359.644 107.4V57.75C359.644 51.95 357.294 49.05 352.594 49.05H350.344C349.744 47.15 349.444 44.5 349.444 41.1C349.444 37.8 349.744 35 350.344 32.7C352.944 32.5 355.344 32.35 357.544 32.25C359.744 32.05 361.744 31.95 363.544 31.95H366.844C371.944 31.95 375.944 33.55 378.844 36.75C381.744 39.95 383.194 44.3 383.194 49.8ZM356.944 2.4C359.844 0.799999 363.594 0 368.194 0C372.894 0 376.544 0.799999 379.144 2.4C380.344 5.1 380.944 8 380.944 11.1C380.944 14.2 380.344 17.1 379.144 19.8C376.244 21.3 372.444 22.05 367.744 22.05C363.044 22.05 359.444 21.3 356.944 19.8C355.744 17.1 355.144 14.2 355.144 11.1C355.144 8 355.744 5.1 356.944 2.4Z"
      fill="currentColor"
    />
    <path
      d="M394.871 102.3C394.971 99.7 395.621 96.85 396.821 93.75C398.121 90.65 399.621 88.2 401.321 86.4C409.321 90.6 416.271 92.7 422.171 92.7C424.971 92.7 427.121 92.25 428.621 91.35C430.121 90.35 430.871 89.05 430.871 87.45C430.871 84.45 428.571 82.2 423.971 80.7L415.721 77.55C403.221 72.95 396.971 65.45 396.971 55.05C396.971 47.45 399.571 41.45 404.771 37.05C410.071 32.55 417.171 30.3 426.071 30.3C430.471 30.3 435.321 30.95 440.621 32.25C445.921 33.45 450.271 34.9 453.671 36.6C453.871 39.4 453.321 42.5 452.021 45.9C450.721 49.2 449.121 51.55 447.221 52.95C438.821 49.15 431.821 47.25 426.221 47.25C424.221 47.25 422.671 47.7 421.571 48.6C420.571 49.5 420.071 50.65 420.071 52.05C420.071 54.45 421.971 56.35 425.771 57.75L435.071 61.05C448.371 65.75 455.021 73.8 455.021 85.2C455.021 92.7 452.271 98.65 446.771 103.05C441.271 107.45 433.421 109.65 423.221 109.65C413.021 109.65 403.571 107.2 394.871 102.3Z"
      fill="currentColor"
    />
    <path
      d="M525.725 77.55H486.575C486.775 82.05 487.925 85.55 490.025 88.05C492.125 90.55 495.575 91.8 500.375 91.8C502.775 91.8 505.525 91.45 508.625 90.75C511.825 90.05 515.475 88.9 519.575 87.3C522.875 90.7 524.925 95.3 525.725 101.1C517.725 106.8 507.925 109.65 496.325 109.65C490.025 109.65 484.725 108.65 480.425 106.65C476.225 104.65 472.775 101.85 470.075 98.25C467.475 94.65 465.625 90.4 464.525 85.5C463.425 80.6 462.875 75.25 462.875 69.45C462.875 63.85 463.525 58.7 464.825 54C466.225 49.2 468.275 45.05 470.975 41.55C473.775 38.05 477.275 35.3 481.475 33.3C485.775 31.3 490.775 30.3 496.475 30.3C501.275 30.3 505.575 31.1 509.375 32.7C513.275 34.3 516.575 36.5 519.275 39.3C521.975 42.1 524.025 45.45 525.425 49.35C526.925 53.25 527.675 57.5 527.675 62.1C527.675 68.2 527.025 73.35 525.725 77.55ZM486.425 61.35H506.225V59.7C506.225 56 505.375 52.95 503.675 50.55C502.075 48.15 499.625 46.95 496.325 46.95C493.125 46.95 490.725 48.1 489.125 50.4C487.625 52.6 486.725 56.25 486.425 61.35Z"
      fill="currentColor"
    />
  </svg>